# xmcd
#
# Track frame offsets:
#	150
#	11027
#	28790
#	43656
#	59179
#	73907
#	86943
#	99369
#	116381
#	129900
#	140168
#	157036
#	166524
#	180692
#	205076
#	222206
#	236109
#	245343
#	257672
#	271918
#
# Disc length: 3776
#
# Revision: 3
# Processed by: cddbd v1.5.1PL0 Copyright (c) Steve Scherf et al.
# Submitted via: CDex 1.40Beta4
# Normalized: r2:TRMNUM
#
DISCID=260ebe14
DTITLE=David Allen Coe - Rated XXX
DYEAR=1900
DGENRE=Country
TTITLE0=Nigger Fucker
TTITLE1=Whips and Things
TTITLE2=Cum Stains On The Pillow
TTITLE3=Pussy Whiped Agian
TTITLE4=Linda Lovelace
TTITLE5=Shallow Throat
TTITLE6=Bullshit and Lies
TTITLE7=Masturbation Blues
TTITLE8=Rock And Roll Fever
TTITLE9=Dont Bite The Dick
TTITLE10=Jimmy Buffet Doesn't Live In Key West
TTITLE11=Lay Me Down Some Rails
TTITLE12=One Monkey Doesn't Stoip No Show
TTITLE13=I Call My Woman Coffee
TTITLE14=Ain't There Nothing Sacred Anymore
TTITLE15=Panheads Forever
TTITLE16=Three Bigest Lies
TTITLE17=Fuck Anita Bryant
TTITLE18=One More Time
TTITLE19=Fuckin' In The Butt
EXTD=ID3G:   2
EXTT0=
EXTT1=
EXTT2=
EXTT3=
EXTT4=
EXTT5=
EXTT6=
EXTT7=
EXTT8=
EXTT9=
EXTT10=
EXTT11=
EXTT12=
EXTT13=
EXTT14=
EXTT15=
EXTT16=
EXTT17=
EXTT18=
EXTT19=
PLAYORDER=
